<?xml version="1.0" encoding="UTF-8" standalone="no"?>
<svg
   xmlns:dc="http://purl.org/dc/elements/1.1/"
   xmlns:cc="http://creativecommons.org/ns#"
   xmlns:rdf="http://www.w3.org/1999/02/22-rdf-syntax-ns#"
   xmlns:svg="http://www.w3.org/2000/svg"
   xmlns="http://www.w3.org/2000/svg"
   xmlns:sodipodi="http://sodipodi.sourceforge.net/DTD/sodipodi-0.dtd"
   xmlns:inkscape="http://www.inkscape.org/namespaces/inkscape"
   sodipodi:docname="swatrunr_hex.svg"
   inkscape:version="1.0.2-2 (e86c870879, 2021-01-15)"
   id="svg1409"
   version="1.1"
   viewBox="0 0 38.954889 45.000001"
   height="45mm"
   width="38.954887mm"
   inkscape:export-filename="C:\Users\schuerz\Documents\logos\SWATrunR_hex.png"
   inkscape:export-xdpi="300"
   inkscape:export-ydpi="300">
  <defs
     id="defs1403">
    <clipPath
       id="clipPath945"
       clipPathUnits="userSpaceOnUse">
      <path
         id="path947"
         d="M 96.700825,-6.4767275 78.289984,4.1528242 V 25.407426 L 96.699502,36.036178 115.09164,25.417499 V 4.1553327 Z"
         style="fill:none;stroke:#ffffff;stroke-width:0.421799;stroke-linecap:butt;stroke-linejoin:miter;stroke-miterlimit:4;stroke-dasharray:none;stroke-opacity:1" />
    </clipPath>
    <clipPath
       clipPathUnits="userSpaceOnUse"
       id="clipPath890">
      <path
         id="path892"
         d="M 27.909385,-6.9471462 10.217753,3.269461 V 23.698345 L 27.908115,33.914177 45.581771,23.708021 V 3.2718711 Z"
         style="opacity:0.486928;fill:#237827;fill-opacity:1;stroke:#237827;stroke-width:0.736494;stroke-linecap:butt;stroke-linejoin:miter;stroke-miterlimit:4;stroke-dasharray:none;stroke-opacity:1" />
    </clipPath>
    <clipPath
       clipPathUnits="userSpaceOnUse"
       id="clipPath1555">
      <path
         style="fill:none;stroke:#000000;stroke-width:0;stroke-linecap:butt;stroke-linejoin:miter;stroke-miterlimit:4;stroke-dasharray:none;stroke-opacity:1"
         d="m 80.861599,2.7332699 9.845541,-5.61266 5.098166,5.0280081 -1.707184,3.0168045 -13.353453,1.0991459 z"
         id="path1557" />
    </clipPath>
    <clipPath
       clipPathUnits="userSpaceOnUse"
       id="clipPath1474">
      <path
         style="fill:none;stroke:#000000;stroke-width:0.421799;stroke-linecap:butt;stroke-linejoin:miter;stroke-miterlimit:4;stroke-dasharray:none;stroke-opacity:1"
         d="M 96.700764,-6.3476575 78.401714,4.2173509 V 25.342894 L 96.699448,35.907109 114.97991,25.352906 V 4.2198443 Z"
         id="path1476" />
    </clipPath>
    <clipPath
       clipPathUnits="userSpaceOnUse"
       id="clipPath950">
      <path
         style="fill:none;stroke:#ffffff;stroke-width:0.0999998;stroke-linecap:butt;stroke-linejoin:miter;stroke-miterlimit:4;stroke-dasharray:none;stroke-opacity:1"
         d="M 96.700792,-6.3914745 78.363815,4.1954301 V 25.364757 L 96.699474,35.950863 115.01781,25.374787 V 4.1979286 Z"
         id="path952" />
    </clipPath>
    <clipPath
       clipPathUnits="userSpaceOnUse"
       id="clipPath1064">
      <path
         style="fill:none;stroke:#ffffff;stroke-width:0.0999998;stroke-linecap:butt;stroke-linejoin:miter;stroke-miterlimit:4;stroke-dasharray:none;stroke-opacity:1"
         d="M 96.700792,-6.3914745 78.363815,4.1954301 V 25.364757 L 96.699474,35.950863 115.01781,25.374787 V 4.1979286 Z"
         id="path1066" />
    </clipPath>
    <clipPath
       clipPathUnits="userSpaceOnUse"
       id="clipPath1070">
      <path
         style="fill:none;stroke:#ffffff;stroke-width:0.0999998;stroke-linecap:butt;stroke-linejoin:miter;stroke-miterlimit:4;stroke-dasharray:none;stroke-opacity:1"
         d="M 96.700792,-6.3914745 78.363815,4.1954301 V 25.364757 L 96.699474,35.950863 115.01781,25.374787 V 4.1979286 Z"
         id="path1072" />
    </clipPath>
    <clipPath
       clipPathUnits="userSpaceOnUse"
       id="clipPath1074">
      <path
         style="fill:none;stroke:#ffffff;stroke-width:0.0999998;stroke-linecap:butt;stroke-linejoin:miter;stroke-miterlimit:4;stroke-dasharray:none;stroke-opacity:1"
         d="M 96.700792,-6.3914745 78.363815,4.1954301 V 25.364757 L 96.699474,35.950863 115.01781,25.374787 V 4.1979286 Z"
         id="path1076" />
    </clipPath>
    <clipPath
       clipPathUnits="userSpaceOnUse"
       id="clipPath1078">
      <path
         style="fill:none;stroke:#ffffff;stroke-width:0.0999998;stroke-linecap:butt;stroke-linejoin:miter;stroke-miterlimit:4;stroke-dasharray:none;stroke-opacity:1"
         d="M 96.700792,-6.3914745 78.363815,4.1954301 V 25.364757 L 96.699474,35.950863 115.01781,25.374787 V 4.1979286 Z"
         id="path1080" />
    </clipPath>
    <clipPath
       clipPathUnits="userSpaceOnUse"
       id="clipPath965">
      <path
         style="fill:none;fill-opacity:0.580645;stroke:#ffffff;stroke-width:0.964999;stroke-linecap:butt;stroke-linejoin:miter;stroke-miterlimit:4;stroke-dasharray:none;stroke-opacity:1"
         d="m 184.97644,121.37087 c -3.28283,1.21608 -42.00274,4.8462 -52.01065,7.10937 -10.00791,2.26317 -12.83679,10.74296 -14.78,16.4638 -1.94321,5.72084 -7.48355,6.5481 -7.48355,6.5481 0,0 -17.494987,3.39883 -21.702284,2.43215 -4.207297,-0.96668 -4.512296,-4.17416 -5.051394,-7.48354 -0.539098,-3.30938 -2.245064,-35.35976 -2.245064,-35.35976 2.657817,-42.782936 86.903372,-59.753176 95.602302,-1.30962 0,0 5.16354,2.22707 8.41899,4.30304 3.25545,2.07597 2.53448,6.08038 -0.74835,7.29646 z"
         id="path967"
         sodipodi:nodetypes="zzzczzcczz" />
    </clipPath>
    <clipPath
       clipPathUnits="userSpaceOnUse"
       id="clipPath969">
      <path
         style="fill:none;fill-opacity:0.580645;stroke:#ffffff;stroke-width:0.964999;stroke-linecap:butt;stroke-linejoin:miter;stroke-miterlimit:4;stroke-dasharray:none;stroke-opacity:1"
         d="m 184.97644,121.37087 c -3.28283,1.21608 -42.00274,4.8462 -52.01065,7.10937 -10.00791,2.26317 -12.83679,10.74296 -14.78,16.4638 -1.94321,5.72084 -7.48355,6.5481 -7.48355,6.5481 0,0 -17.494987,3.39883 -21.702284,2.43215 -4.207297,-0.96668 -4.512296,-4.17416 -5.051394,-7.48354 -0.539098,-3.30938 -2.245064,-35.35976 -2.245064,-35.35976 2.657817,-42.782936 86.903372,-59.753176 95.602302,-1.30962 0,0 5.16354,2.22707 8.41899,4.30304 3.25545,2.07597 2.53448,6.08038 -0.74835,7.29646 z"
         id="path971"
         sodipodi:nodetypes="zzzczzcczz" />
    </clipPath>
    <clipPath
       clipPathUnits="userSpaceOnUse"
       id="clipPath973">
      <path
         style="fill:none;fill-opacity:0.580645;stroke:#ffffff;stroke-width:0.964999;stroke-linecap:butt;stroke-linejoin:miter;stroke-miterlimit:4;stroke-dasharray:none;stroke-opacity:1"
         d="m 184.97644,121.37087 c -3.28283,1.21608 -42.00274,4.8462 -52.01065,7.10937 -10.00791,2.26317 -12.83679,10.74296 -14.78,16.4638 -1.94321,5.72084 -7.48355,6.5481 -7.48355,6.5481 0,0 -17.494987,3.39883 -21.702284,2.43215 -4.207297,-0.96668 -4.512296,-4.17416 -5.051394,-7.48354 -0.539098,-3.30938 -2.245064,-35.35976 -2.245064,-35.35976 2.657817,-42.782936 86.903372,-59.753176 95.602302,-1.30962 0,0 5.16354,2.22707 8.41899,4.30304 3.25545,2.07597 2.53448,6.08038 -0.74835,7.29646 z"
         id="path975"
         sodipodi:nodetypes="zzzczzcczz" />
    </clipPath>
    <clipPath
       clipPathUnits="userSpaceOnUse"
       id="clipPath977">
      <path
         style="fill:none;fill-opacity:0.580645;stroke:#ffffff;stroke-width:0.964999;stroke-linecap:butt;stroke-linejoin:miter;stroke-miterlimit:4;stroke-dasharray:none;stroke-opacity:1"
         d="m 184.97644,121.37087 c -3.28283,1.21608 -42.00274,4.8462 -52.01065,7.10937 -10.00791,2.26317 -12.83679,10.74296 -14.78,16.4638 -1.94321,5.72084 -7.48355,6.5481 -7.48355,6.5481 0,0 -17.494987,3.39883 -21.702284,2.43215 -4.207297,-0.96668 -4.512296,-4.17416 -5.051394,-7.48354 -0.539098,-3.30938 -2.245064,-35.35976 -2.245064,-35.35976 2.657817,-42.782936 86.903372,-59.753176 95.602302,-1.30962 0,0 5.16354,2.22707 8.41899,4.30304 3.25545,2.07597 2.53448,6.08038 -0.74835,7.29646 z"
         id="path979"
         sodipodi:nodetypes="zzzczzcczz" />
    </clipPath>
    <clipPath
       clipPathUnits="userSpaceOnUse"
       id="clipPath981">
      <path
         style="fill:none;fill-opacity:0.580645;stroke:#ffffff;stroke-width:0.964999;stroke-linecap:butt;stroke-linejoin:miter;stroke-miterlimit:4;stroke-dasharray:none;stroke-opacity:1"
         d="m 184.97644,121.37087 c -3.28283,1.21608 -42.00274,4.8462 -52.01065,7.10937 -10.00791,2.26317 -12.83679,10.74296 -14.78,16.4638 -1.94321,5.72084 -7.48355,6.5481 -7.48355,6.5481 0,0 -17.494987,3.39883 -21.702284,2.43215 -4.207297,-0.96668 -4.512296,-4.17416 -5.051394,-7.48354 -0.539098,-3.30938 -2.245064,-35.35976 -2.245064,-35.35976 2.657817,-42.782936 86.903372,-59.753176 95.602302,-1.30962 0,0 5.16354,2.22707 8.41899,4.30304 3.25545,2.07597 2.53448,6.08038 -0.74835,7.29646 z"
         id="path983"
         sodipodi:nodetypes="zzzczzcczz" />
    </clipPath>
    <clipPath
       clipPathUnits="userSpaceOnUse"
       id="clipPath985">
      <path
         style="fill:none;fill-opacity:0.580645;stroke:#ffffff;stroke-width:0.964999;stroke-linecap:butt;stroke-linejoin:miter;stroke-miterlimit:4;stroke-dasharray:none;stroke-opacity:1"
         d="m 184.97644,121.37087 c -3.28283,1.21608 -42.00274,4.8462 -52.01065,7.10937 -10.00791,2.26317 -12.83679,10.74296 -14.78,16.4638 -1.94321,5.72084 -7.48355,6.5481 -7.48355,6.5481 0,0 -17.494987,3.39883 -21.702284,2.43215 -4.207297,-0.96668 -4.512296,-4.17416 -5.051394,-7.48354 -0.539098,-3.30938 -2.245064,-35.35976 -2.245064,-35.35976 2.657817,-42.782936 86.903372,-59.753176 95.602302,-1.30962 0,0 5.16354,2.22707 8.41899,4.30304 3.25545,2.07597 2.53448,6.08038 -0.74835,7.29646 z"
         id="path987"
         sodipodi:nodetypes="zzzczzcczz" />
    </clipPath>
    <clipPath
       clipPathUnits="userSpaceOnUse"
       id="clipPath989">
      <path
         style="fill:none;fill-opacity:0.580645;stroke:#ffffff;stroke-width:0.964999;stroke-linecap:butt;stroke-linejoin:miter;stroke-miterlimit:4;stroke-dasharray:none;stroke-opacity:1"
         d="m 184.97644,121.37087 c -3.28283,1.21608 -42.00274,4.8462 -52.01065,7.10937 -10.00791,2.26317 -12.83679,10.74296 -14.78,16.4638 -1.94321,5.72084 -7.48355,6.5481 -7.48355,6.5481 0,0 -17.494987,3.39883 -21.702284,2.43215 -4.207297,-0.96668 -4.512296,-4.17416 -5.051394,-7.48354 -0.539098,-3.30938 -2.245064,-35.35976 -2.245064,-35.35976 2.657817,-42.782936 86.903372,-59.753176 95.602302,-1.30962 0,0 5.16354,2.22707 8.41899,4.30304 3.25545,2.07597 2.53448,6.08038 -0.74835,7.29646 z"
         id="path991"
         sodipodi:nodetypes="zzzczzcczz" />
    </clipPath>
    <clipPath
       clipPathUnits="userSpaceOnUse"
       id="clipPath993">
      <path
         style="fill:none;fill-opacity:0.580645;stroke:#ffffff;stroke-width:0.964999;stroke-linecap:butt;stroke-linejoin:miter;stroke-miterlimit:4;stroke-dasharray:none;stroke-opacity:1"
         d="m 184.97644,121.37087 c -3.28283,1.21608 -42.00274,4.8462 -52.01065,7.10937 -10.00791,2.26317 -12.83679,10.74296 -14.78,16.4638 -1.94321,5.72084 -7.48355,6.5481 -7.48355,6.5481 0,0 -17.494987,3.39883 -21.702284,2.43215 -4.207297,-0.96668 -4.512296,-4.17416 -5.051394,-7.48354 -0.539098,-3.30938 -2.245064,-35.35976 -2.245064,-35.35976 2.657817,-42.782936 86.903372,-59.753176 95.602302,-1.30962 0,0 5.16354,2.22707 8.41899,4.30304 3.25545,2.07597 2.53448,6.08038 -0.74835,7.29646 z"
         id="path995"
         sodipodi:nodetypes="zzzczzcczz" />
    </clipPath>
    <clipPath
       clipPathUnits="userSpaceOnUse"
       id="clipPath997">
      <path
         style="fill:none;fill-opacity:0.580645;stroke:#ffffff;stroke-width:0.964999;stroke-linecap:butt;stroke-linejoin:miter;stroke-miterlimit:4;stroke-dasharray:none;stroke-opacity:1"
         d="m 184.97644,121.37087 c -3.28283,1.21608 -42.00274,4.8462 -52.01065,7.10937 -10.00791,2.26317 -12.83679,10.74296 -14.78,16.4638 -1.94321,5.72084 -7.48355,6.5481 -7.48355,6.5481 0,0 -17.494987,3.39883 -21.702284,2.43215 -4.207297,-0.96668 -4.512296,-4.17416 -5.051394,-7.48354 -0.539098,-3.30938 -2.245064,-35.35976 -2.245064,-35.35976 2.657817,-42.782936 86.903372,-59.753176 95.602302,-1.30962 0,0 5.16354,2.22707 8.41899,4.30304 3.25545,2.07597 2.53448,6.08038 -0.74835,7.29646 z"
         id="path999"
         sodipodi:nodetypes="zzzczzcczz" />
    </clipPath>
    <clipPath
       clipPathUnits="userSpaceOnUse"
       id="clipPath1001">
      <path
         style="fill:none;fill-opacity:0.580645;stroke:#ffffff;stroke-width:0.964999;stroke-linecap:butt;stroke-linejoin:miter;stroke-miterlimit:4;stroke-dasharray:none;stroke-opacity:1"
         d="m 184.97644,121.37087 c -3.28283,1.21608 -42.00274,4.8462 -52.01065,7.10937 -10.00791,2.26317 -12.83679,10.74296 -14.78,16.4638 -1.94321,5.72084 -7.48355,6.5481 -7.48355,6.5481 0,0 -17.494987,3.39883 -21.702284,2.43215 -4.207297,-0.96668 -4.512296,-4.17416 -5.051394,-7.48354 -0.539098,-3.30938 -2.245064,-35.35976 -2.245064,-35.35976 2.657817,-42.782936 86.903372,-59.753176 95.602302,-1.30962 0,0 5.16354,2.22707 8.41899,4.30304 3.25545,2.07597 2.53448,6.08038 -0.74835,7.29646 z"
         id="path1003"
         sodipodi:nodetypes="zzzczzcczz" />
    </clipPath>
    <clipPath
       clipPathUnits="userSpaceOnUse"
       id="clipPath1611">
      <path
         style="fill:none;stroke:#ffffff;stroke-width:0.0986555;stroke-linecap:butt;stroke-linejoin:miter;stroke-miterlimit:4;stroke-dasharray:none;stroke-opacity:1"
         d="M 96.700761,-6.3373536 78.410644,4.2224954 V 25.337722 L 96.699451,35.896777 114.97098,25.347731 V 4.2249878 Z"
         id="path1613" />
    </clipPath>
    <clipPath
       clipPathUnits="userSpaceOnUse"
       id="clipPath1615">
      <path
         style="fill:none;stroke:#ffffff;stroke-width:0.0986555;stroke-linecap:butt;stroke-linejoin:miter;stroke-miterlimit:4;stroke-dasharray:none;stroke-opacity:1"
         d="M 96.700761,-6.3373536 78.410644,4.2224954 V 25.337722 L 96.699451,35.896777 114.97098,25.347731 V 4.2249878 Z"
         id="path1617" />
    </clipPath>
    <clipPath
       clipPathUnits="userSpaceOnUse"
       id="clipPath1015">
      <path
         style="fill:none;stroke:#000000;stroke-width:0.0999998;stroke-linecap:butt;stroke-linejoin:miter;stroke-miterlimit:4;stroke-dasharray:none;stroke-opacity:1"
         d="M 96.700792,-6.3914745 78.363815,4.1954301 V 25.364757 L 96.699474,35.950863 115.01781,25.374787 V 4.1979286 Z"
         id="path1017" />
    </clipPath>
    <clipPath
       clipPathUnits="userSpaceOnUse"
       id="clipPath1133">
      <path
         style="fill:none;stroke:#000000;stroke-width:0.0999999;stroke-linecap:butt;stroke-linejoin:miter;stroke-miterlimit:4;stroke-dasharray:none;stroke-opacity:1"
         d="M 140.76351,-0.80461383 124.86446,8.3746037 V 26.729152 l 15.89791,9.178525 15.88289,-9.169828 V 8.3767699 Z"
         id="path1135" />
    </clipPath>
    <clipPath
       clipPathUnits="userSpaceOnUse"
       id="clipPath1137">
      <path
         style="fill:none;stroke:#000000;stroke-width:0.0999998;stroke-linecap:butt;stroke-linejoin:miter;stroke-miterlimit:4;stroke-dasharray:none;stroke-opacity:1"
         d="M 96.513703,-5.4032995 78.176726,5.1836052 V 26.352932 L 96.512385,36.939038 114.83072,26.362962 V 5.1861036 Z"
         id="path1139" />
    </clipPath>
  </defs>
  <sodipodi:namedview
     inkscape:window-maximized="1"
     inkscape:window-y="-11"
     inkscape:window-x="-11"
     inkscape:window-height="1000"
     inkscape:window-width="1920"
     fit-margin-bottom="0"
     fit-margin-right="0"
     fit-margin-left="0"
     fit-margin-top="0"
     showgrid="false"
     inkscape:document-rotation="0"
     inkscape:current-layer="layer1"
     inkscape:document-units="mm"
     inkscape:cy="64.084964"
     inkscape:cx="-55.649821"
     inkscape:zoom="1.4142136"
     inkscape:pageshadow="2"
     inkscape:pageopacity="0.0"
     borderopacity="1.0"
     bordercolor="#666666"
     pagecolor="#ffffff"
     id="base"
     showguides="false"
     inkscape:guide-bbox="true">
    <sodipodi:guide
       position="31.683856,34.714325"
       orientation="1,0"
       id="guide1754" />
    <sodipodi:guide
       position="26.491409,1.2776041"
       orientation="0.89100652,0.4539905"
       id="guide916"
       inkscape:label=""
       inkscape:locked="false"
       inkscape:color="rgb(0,0,255)" />
    <sodipodi:guide
       position="27.601427,32.640457"
       orientation="0,-1"
       id="guide1096" />
    <sodipodi:guide
       position="23.977866,39.146097"
       orientation="1,0"
       id="guide1098" />
    <sodipodi:guide
       position="2.6375653,24.184735"
       orientation="0,-1"
       id="guide1100" />
    <sodipodi:guide
       position="38.586644,11.452678"
       orientation="0,-1"
       id="guide1140" />
    <sodipodi:guide
       position="26.193751,35.640367"
       orientation="0,-1"
       id="guide1187" />
    <sodipodi:guide
       position="19.794142,17.202216"
       orientation="0,-1"
       id="guide1549" />
    <sodipodi:guide
       position="20.455601,14.903648"
       orientation="0,-1"
       id="guide1551" />
    <sodipodi:guide
       position="28.26793,33.406351"
       orientation="1,0"
       id="guide1047" />
    <sodipodi:guide
       position="-0.37417736,27.355202"
       orientation="0,-1"
       id="guide1049" />
    <sodipodi:guide
       position="-18.388543,43.147919"
       orientation="0,-1"
       id="guide1106" />
  </sodipodi:namedview>
  <metadata
     id="metadata1406">
    <rdf:RDF>
      <cc:Work
         rdf:about="">
        <dc:format>image/svg+xml</dc:format>
        <dc:type
           rdf:resource="http://purl.org/dc/dcmitype/StillImage" />
        <dc:title />
      </cc:Work>
    </rdf:RDF>
  </metadata>
  <g
     transform="translate(-77.21337,7.7203094)"
     id="layer1"
     inkscape:groupmode="layer"
     inkscape:label="Layer 1">
    <path
       id="path970"
       d="M 96.70121,-7.2950241 77.581616,3.7437293 V 25.816556 L 96.699836,36.854475 115.80001,25.827014 V 3.7463333 Z"
       style="fill:#a02c2c;fill-opacity:1;stroke:#782121;stroke-width:0.736493;stroke-linecap:butt;stroke-linejoin:miter;stroke-miterlimit:4;stroke-dasharray:none;stroke-opacity:1" />
    <path
       style="fill:none;stroke:#ffffff;stroke-width:0.4218;stroke-linecap:butt;stroke-linejoin:miter;stroke-miterlimit:4;stroke-dasharray:none;stroke-opacity:1"
       d="M 96.701005,-6.8535085 77.963818,3.9644578 V 25.595809 L 96.699657,36.412964 115.41781,25.60606 V 3.967011 Z"
       id="path968" />
    <path
       style="fill:#ffffff;stroke:none;stroke-width:0.1;stroke-linecap:butt;stroke-linejoin:miter;stroke-miterlimit:4;stroke-dasharray:none;stroke-opacity:1"
       d="m 80.347955,20.344339 h 0.689888 c 2.390002,3.176931 10.80942,5.046582 11.264921,-0.434345 C 92.766253,14.332939 80.669395,19.048011 80.448129,9.3864428 80.263905,1.3423357 89.50859,0.550153 94.894098,3.8337631 V 8.2303466 H 94.210055 C 91.257126,5.1800839 83.958277,4.239386 83.803024,8.979394 c -0.18644,5.692197 12.425834,0.8050575 11.790495,10.996746 -0.477188,7.654736 -9.266096,8.549889 -15.245564,4.986951 z"
       id="path894"
       sodipodi:nodetypes="ccsscccsscc"
       clip-path="none" />
    <path
       style="fill:#ffffff;stroke:#a02c2c;stroke-width:0.265001;stroke-linecap:butt;stroke-linejoin:round;stroke-miterlimit:4;stroke-dasharray:none;stroke-opacity:1"
       d="m 82.867431,21.955432 c -0.0684,-0.506214 -0.215719,-0.48587 -0.474033,-0.626568 -0.52874,-1.471889 -1.920966,-1.505631 -2.488342,-0.235029 -0.691601,1.548797 -2.901033,2.598224 -3.442928,3.341974 -0.541895,0.74375 -0.809801,1.396928 -1.044922,2.161061 -0.206797,0.672079 0.695387,0.658749 1.02124,0.322497 1.621213,-1.317847 3.471771,-1.49991 4.583472,-1.419472 z"
       id="path954"
       sodipodi:nodetypes="ccszsccc"
       clip-path="url(#clipPath1015)" />
    <path
       style="fill:#ffffff;stroke:#a02c2c;stroke-width:0.265001;stroke-linecap:butt;stroke-linejoin:round;stroke-miterlimit:4;stroke-dasharray:none;stroke-opacity:1"
       d="m 96.722293,28.91083 c -0.16913,0.482002 -0.0287,0.530833 0.13749,0.773555 -0.19795,1.5514 1.02686,2.214182 2.10971,1.34023 1.319927,-1.065299 3.764947,-0.995965 4.585647,-1.412197 0.82072,-0.416228 1.3562,-0.876301 1.91292,-1.450107 0.48964,-0.504679 -0.32004,-0.902818 -0.76312,-0.751391 -2.04304,0.437098 -3.77419,-0.241751 -4.727889,-0.818636 z"
       id="path976"
       sodipodi:nodetypes="ccszsccc" />
    <path
       style="fill:#ffffff;stroke:#a02c2c;stroke-width:0.264583px;stroke-linecap:butt;stroke-linejoin:miter;stroke-opacity:1"
       d="m 96.722293,28.91083 c -1.000365,-2.340446 -2.1203,-3.533029 -3.341115,-3.757156 0.82026,-0.76082 1.56803,-1.500783 2.150101,-3.750287 1.962925,1.210152 3.581668,2.79202 4.445772,5.188897 z"
       id="path978"
       sodipodi:nodetypes="ccccc" />
    <path
       style="fill:#a02c2c;fill-opacity:1;stroke:none;stroke-width:0.264583px;stroke-linecap:butt;stroke-linejoin:miter;stroke-opacity:1"
       d="m 82.604926,3.8362493 h 12.312198 l -0.0073,1.6056231 -13.589655,0.011693 C 81.729614,4.726846 82.0557,4.3053541 82.604926,3.8362493 Z"
       id="path986"
       sodipodi:nodetypes="ccccc" />
    <g
       id="g984"
       transform="matrix(0.06349211,0,0,0.0634239,85.226369,-3.4230967)"
       style="fill:#ffffff;fill-opacity:1;stroke:none;stroke-width:20.2873;stroke-opacity:1">
      <path
         sodipodi:nodetypes="ccccc"
         inkscape:connector-curvature="0"
         id="path976-4"
         d="m 111.16723,123.71928 h -6.64786 v 6.64786 h 6.64786 z"
         style="fill:#ffffff;fill-opacity:1;fill-rule:evenodd;stroke:none;stroke-width:1.92669px;stroke-linecap:butt;stroke-linejoin:miter;stroke-opacity:1" />
      <path
         sodipodi:nodetypes="ccccc"
         inkscape:connector-curvature="0"
         id="path978-5"
         d="m 120.73045,123.71928 h -6.64785 v 6.64786 h 6.64785 z"
         style="fill:#ffffff;fill-opacity:1;fill-rule:evenodd;stroke:none;stroke-width:1.92669px;stroke-linecap:butt;stroke-linejoin:miter;stroke-opacity:1" />
      <path
         sodipodi:nodetypes="ccccc"
         inkscape:connector-curvature="0"
         id="path980"
         d="m 115.87215,119.01436 h -6.64786 v 6.64786 h 6.64786 z"
         style="fill:#ffffff;fill-opacity:1;fill-rule:evenodd;stroke:none;stroke-width:1.92669px;stroke-linecap:butt;stroke-linejoin:miter;stroke-opacity:1" />
      <path
         sodipodi:nodetypes="ccccc"
         inkscape:connector-curvature="0"
         id="path982"
         d="m 115.87215,128.42422 h -6.64786 v 6.64785 h 6.64786 z"
         style="fill:#ffffff;fill-opacity:1;fill-rule:evenodd;stroke:none;stroke-width:1.92669px;stroke-linecap:butt;stroke-linejoin:miter;stroke-opacity:1" />
      <path
         style="fill:#ffffff;fill-opacity:1;fill-rule:evenodd;stroke:none;stroke-width:1.92669px;stroke-linecap:butt;stroke-linejoin:miter;stroke-opacity:1"
         d="m 115.87215,123.78404 h -6.64786 v 6.64786 h 6.64786 z"
         id="path1077"
         inkscape:connector-curvature="0"
         sodipodi:nodetypes="ccccc" />
    </g>
    <g
       id="g1104"
       transform="translate(0.18708864,-0.98817502)"
       clip-path="url(#clipPath1137)">
      <g
         id="g1027"
         transform="translate(-23.371056,0.57956795)"
         style="stroke:#ffffff;stroke-opacity:1">
        <path
           style="fill:none;stroke:#ffffff;stroke-width:0.264583px;stroke-linecap:butt;stroke-linejoin:miter;stroke-opacity:1"
           d="M 128.66275,0.04387016 V 10.04387"
           id="path1019" />
        <path
           style="fill:none;stroke:#ffffff;stroke-width:0.264583px;stroke-linecap:butt;stroke-linejoin:miter;stroke-opacity:1"
           d="m 133.65813,5.0484916 h -10"
           id="path1021" />
      </g>
      <circle
         style="fill:none;fill-opacity:1;stroke:#ffffff;stroke-width:0.264999;stroke-linecap:round;stroke-linejoin:round;stroke-miterlimit:4;stroke-dasharray:none;stroke-opacity:1"
         id="path1023"
         cx="105.28707"
         cy="5.6234379"
         r="5.3675003" />
      <circle
         style="fill:none;fill-opacity:1;stroke:#ffffff;stroke-width:0.264999;stroke-linecap:round;stroke-linejoin:round;stroke-miterlimit:4;stroke-dasharray:none;stroke-opacity:1"
         id="path1029"
         cx="101.08921"
         cy="3.2058344"
         r="0.081851296" />
      <circle
         style="fill:none;fill-opacity:1;stroke:#ffffff;stroke-width:0.264999;stroke-linecap:round;stroke-linejoin:round;stroke-miterlimit:4;stroke-dasharray:none;stroke-opacity:1"
         id="circle1045"
         cx="90.507141"
         cy="-48.7756"
         r="0.081851296"
         inkscape:transform-center-x="2.4854251"
         inkscape:transform-center-y="-4.1654347"
         transform="rotate(29.139213)" />
      <circle
         style="fill:none;fill-opacity:1;stroke:#ffffff;stroke-width:0.264999;stroke-linecap:round;stroke-linejoin:round;stroke-miterlimit:4;stroke-dasharray:none;stroke-opacity:1"
         id="circle1051"
         cx="1.8231548"
         cy="-107.69489"
         r="0.081851296"
         inkscape:transform-center-x="-2.4125168"
         inkscape:transform-center-y="-4.2080862"
         transform="rotate(89.788588)" />
      <circle
         style="fill:none;fill-opacity:1;stroke:#ffffff;stroke-width:0.264999;stroke-linecap:round;stroke-linejoin:round;stroke-miterlimit:4;stroke-dasharray:none;stroke-opacity:1"
         id="circle1053"
         cx="-50.427475"
         cy="-97.192596"
         r="0.081851296"
         inkscape:transform-center-x="-4.1623103"
         inkscape:transform-center-y="-2.4906673"
         transform="rotate(119.06708)" />
      <circle
         style="fill:none;fill-opacity:1;stroke:#ffffff;stroke-width:0.264999;stroke-linecap:round;stroke-linejoin:round;stroke-miterlimit:4;stroke-dasharray:none;stroke-opacity:1"
         id="circle1055"
         cx="-109.4369"
         cy="-8.9395542"
         r="0.081851296"
         inkscape:transform-center-x="-4.21926"
         inkscape:transform-center-y="2.3929206"
         transform="rotate(179.52227)" />
      <circle
         style="fill:none;fill-opacity:1;stroke:#ffffff;stroke-width:0.264999;stroke-linecap:round;stroke-linejoin:round;stroke-miterlimit:4;stroke-dasharray:none;stroke-opacity:1"
         id="circle1057"
         cx="-98.975761"
         cy="43.775639"
         r="0.081851296"
         inkscape:transform-center-x="-2.4917576"
         inkscape:transform-center-y="4.1616543"
         transform="rotate(-150.94783)" />
      <circle
         style="fill:none;fill-opacity:1;stroke:#ffffff;stroke-width:0.264999;stroke-linecap:round;stroke-linejoin:round;stroke-miterlimit:4;stroke-dasharray:none;stroke-opacity:1"
         id="circle1059"
         cx="-10.179528"
         cy="102.84124"
         r="0.081851296"
         inkscape:transform-center-x="2.4141828"
         inkscape:transform-center-y="4.2071317"
         transform="rotate(-90.188582)" />
      <circle
         style="fill:none;fill-opacity:1;stroke:#ffffff;stroke-width:0.264999;stroke-linecap:round;stroke-linejoin:round;stroke-miterlimit:4;stroke-dasharray:none;stroke-opacity:1"
         id="circle1061"
         cx="42.00325"
         cy="92.34919"
         r="0.081851296"
         inkscape:transform-center-x="4.161621"
         inkscape:transform-center-y="2.4918118"
         transform="rotate(-60.94858)" />
      <g
         id="g1087"
         transform="matrix(-0.28590374,-0.328161,0.328161,-0.28590374,138.63597,53.959224)"
         inkscape:transform-center-x="1.4820931"
         inkscape:transform-center-y="1.312544">
        <path
           style="fill:#ffffff;fill-opacity:1;stroke:none;stroke-width:0.264583px;stroke-linecap:butt;stroke-linejoin:miter;stroke-opacity:1"
           d="m 145.31429,15.906347 -13.04023,-1.253096 c -0.2942,0.255907 -0.25796,0.494098 -0.0513,0.723153 z"
           id="path1081"
           sodipodi:nodetypes="cccc"
           inkscape:transform-center-x="1.1997891"
           inkscape:transform-center-y="-1.5805924" />
        <circle
           style="fill:#a02c2c;fill-opacity:1;stroke:#ffffff;stroke-width:0.264999;stroke-linecap:round;stroke-linejoin:round;stroke-miterlimit:4;stroke-dasharray:none;stroke-opacity:1"
           id="circle1083"
           cx="-133.88649"
           cy="-16.297506"
           r="0.61743021"
           inkscape:transform-center-x="-31.827208"
           inkscape:transform-center-y="18.050555"
           transform="rotate(179.52227)" />
      </g>
      <path
         style="fill:#ffffff;fill-opacity:1;stroke:none;stroke-width:0.115156px;stroke-linecap:butt;stroke-linejoin:miter;stroke-opacity:1"
         d="m 78.147198,7.795665 2.205341,0.1660422 c 0.0193,-0.1042128 0.03962,-0.1865179 0.08921,-0.3113892 z"
         id="path1141"
         sodipodi:nodetypes="cccc" />
      <path
         style="fill:#ffffff;fill-opacity:1;stroke:none;stroke-width:0.115156px;stroke-linecap:butt;stroke-linejoin:miter;stroke-opacity:1"
         d="m 78.101429,10.936267 1.998098,-0.148666 c 0.0092,0.109273 0.01383,0.223203 0.03004,0.325503 z"
         id="path1149"
         sodipodi:nodetypes="cccc" />
      <path
         style="fill:#ffffff;fill-opacity:1;stroke:none;stroke-width:0.115156px;stroke-linecap:butt;stroke-linejoin:miter;stroke-opacity:1"
         d="m 78.783698,4.8244235 3.502593,4e-7 c 0.106116,-0.1207493 0.315843,-0.2741821 0.315843,-0.2741821 z"
         id="path1151"
         sodipodi:nodetypes="cccc" />
      <path
         style="fill:#ffffff;fill-opacity:1;stroke:none;stroke-width:0.115156px;stroke-linecap:butt;stroke-linejoin:miter;stroke-opacity:1"
         d="M 78.114198,14.083132 80.947387,13.939 c 0.05467,0.105139 0.19127,0.284162 0.19127,0.284162 z"
         id="path1171"
         sodipodi:nodetypes="cccc" />
    </g>
    <g
       id="g1131"
       transform="matrix(1.1533378,0,0,1.1533559,-65.647089,-5.4634684)"
       style="stroke-width:0.867042"
       clip-path="url(#clipPath1133)">
      <ellipse
         style="fill:#ffffff;fill-opacity:1;stroke:#000000;stroke-width:0;stroke-linecap:round;stroke-linejoin:round;stroke-miterlimit:4;stroke-dasharray:none;stroke-opacity:1"
         id="path1124"
         cx="144.57967"
         cy="3.0667341"
         rx="1.2808198"
         ry="0.97459275"
         transform="matrix(0.99124443,0.13203972,-0.17687303,0.98423368,0,0)" />
      <path
         style="fill:#ffffff;stroke:#a02c2c;stroke-width:0.229405px;stroke-linecap:round;stroke-linejoin:bevel;stroke-opacity:1"
         d="m 142.27345,13.210235 v 8.769781 c 0.46275,0.410523 0.77498,0.269103 1.05238,0 v -8.676237 c -0.25128,-0.329724 -0.55369,-0.506052 -1.05238,-0.09354 z"
         id="path1122"
         sodipodi:nodetypes="ccccc" />
      <path
         style="fill:#ffffff;fill-opacity:1;stroke:none;stroke-width:0.229405px;stroke-linecap:butt;stroke-linejoin:miter;stroke-opacity:1"
         d="m 143.45859,14.961034 v -0.765521 c 6.8086,5.712093 14.02237,10.107379 21.82796,12.579229 l -0.0165,0.694531 c -7.27049,-2.644957 -14.54097,-5.916427 -21.81146,-12.508239 z"
         id="path1126"
         sodipodi:nodetypes="ccccc" />
    </g>
  </g>
</svg>
